<?xml version="1.0" encoding="UTF-8" standalone="no"?>
<!-- Generator: Adobe Illustrator 17.0.1, SVG Export Plug-In . SVG Version: 6.00 Build 0)  -->

<svg
   xmlns:dc="http://purl.org/dc/elements/1.1/"
   xmlns:cc="http://creativecommons.org/ns#"
   xmlns:rdf="http://www.w3.org/1999/02/22-rdf-syntax-ns#"
   xmlns:svg="http://www.w3.org/2000/svg"
   xmlns="http://www.w3.org/2000/svg"
   xmlns:xlink="http://www.w3.org/1999/xlink"
   xmlns:sodipodi="http://sodipodi.sourceforge.net/DTD/sodipodi-0.dtd"
   xmlns:inkscape="http://www.inkscape.org/namespaces/inkscape"
   version="1.1"
   x="0px"
   y="0px"
   width="86px"
   height="86px"
   viewBox="0 0 86 86"
   enable-background="new 0 0 86 86"
   xml:space="preserve"
   id="svg21"
   sodipodi:docname="icon-launcher-harbour-watchlist.svg"
   inkscape:version="0.92.4 5da689c313, 2019-01-14"
   inkscape:export-filename="/mnt/HDD/Kirjastot/OHJELMOINTI/icon-launcher-harbour-watchlist.png"
   inkscape:export-xdpi="285.76999"
   inkscape:export-ydpi="285.76999"><metadata
   id="metadata27"><rdf:RDF><cc:Work
       rdf:about=""><dc:format>image/svg+xml</dc:format><dc:type
         rdf:resource="http://purl.org/dc/dcmitype/StillImage" /><dc:title></dc:title></cc:Work></rdf:RDF></metadata><defs
   id="defs25"><linearGradient
     inkscape:collect="always"
     id="linearGradient7629"><stop
       style="stop-color:#0075ff;stop-opacity:1"
       offset="0"
       id="stop7625" /><stop
       style="stop-color:#00f0ff;stop-opacity:1"
       offset="1"
       id="stop7627" /></linearGradient><marker
     inkscape:stockid="TriangleOutS"
     orient="auto"
     refY="0.0"
     refX="0.0"
     id="TriangleOutS"
     style="overflow:visible"
     inkscape:isstock="true"><path
       id="path4741"
       d="M 5.77,0.0 L -2.88,5.0 L -2.88,-5.0 L 5.77,0.0 z "
       style="fill-rule:evenodd;stroke:#000000;stroke-width:1pt;stroke-opacity:1;fill:#000000;fill-opacity:1"
       transform="scale(0.2)" /></marker><marker
     inkscape:stockid="DiamondS"
     orient="auto"
     refY="0.0"
     refX="0.0"
     id="DiamondS"
     style="overflow:visible"
     inkscape:isstock="true"><path
       id="path4678"
       d="M 0,-7.0710768 L -7.0710894,0 L 0,7.0710589 L 7.0710462,0 L 0,-7.0710768 z "
       style="fill-rule:evenodd;stroke:#000000;stroke-width:1pt;stroke-opacity:1;fill:#000000;fill-opacity:1"
       transform="scale(0.2)" /></marker><marker
     inkscape:stockid="TriangleOutM"
     orient="auto"
     refY="0.0"
     refX="0.0"
     id="TriangleOutM"
     style="overflow:visible"
     inkscape:isstock="true"><path
       id="path4738"
       d="M 5.77,0.0 L -2.88,5.0 L -2.88,-5.0 L 5.77,0.0 z "
       style="fill-rule:evenodd;stroke:#000000;stroke-width:1pt;stroke-opacity:1;fill:#000000;fill-opacity:1"
       transform="scale(0.4)" /></marker><marker
     inkscape:stockid="Arrow2Lend"
     orient="auto"
     refY="0.0"
     refX="0.0"
     id="marker5101"
     style="overflow:visible;"
     inkscape:isstock="true"><path
       id="path5099"
       style="fill-rule:evenodd;stroke-width:0.625;stroke-linejoin:round;stroke:#000000;stroke-opacity:1;fill:#000000;fill-opacity:1"
       d="M 8.7185878,4.0337352 L -2.2072895,0.016013256 L 8.7185884,-4.0017078 C 6.9730900,-1.6296469 6.9831476,1.6157441 8.7185878,4.0337352 z "
       transform="scale(1.1) rotate(180) translate(1,0)" /></marker><marker
     inkscape:stockid="Arrow2Lend"
     orient="auto"
     refY="0"
     refX="-2"
     id="Arrow2Lend"
     style="overflow:visible"
     inkscape:isstock="true"><path
       id="path4614"
       style="fill:#000000;fill-opacity:1;fill-rule:evenodd;stroke:#000000;stroke-width:0.625;stroke-linejoin:round;stroke-opacity:1"
       d="M 8.7185878,4.0337352 -2.2072895,0.01601326 8.7185884,-4.0017078 c -1.7454984,2.3720609 -1.7354408,5.6174519 -6e-7,8.035443 z"
       transform="matrix(-0.4,0,0,0.4,-0.4,0)"
       inkscape:connector-curvature="0" /></marker><marker
     inkscape:stockid="Arrow1Lend"
     orient="auto"
     refY="0.0"
     refX="0.0"
     id="Arrow1Lend"
     style="overflow:visible;"
     inkscape:isstock="true"><path
       id="path4596"
       d="M 0,0 5,-5 -12.5,0 5,5 Z"
       style="fill:#000000;fill-opacity:1;fill-rule:evenodd;stroke:#000000;stroke-width:1.00000003pt;stroke-opacity:1"
       transform="matrix(-0.2,0,0,-0.2,-2.5,0)"
       inkscape:connector-curvature="0" /></marker><linearGradient
     inkscape:collect="always"
     xlink:href="#linearGradient7629"
     id="linearGradient7633"
     gradientUnits="userSpaceOnUse"
     x1="6"
     y1="80"
     x2="80"
     y2="6" /></defs><sodipodi:namedview
   pagecolor="#ffffff"
   bordercolor="#666666"
   borderopacity="1"
   objecttolerance="10"
   gridtolerance="10"
   guidetolerance="10"
   inkscape:pageopacity="0"
   inkscape:pageshadow="2"
   inkscape:window-width="640"
   inkscape:window-height="480"
   id="namedview23"
   showgrid="true"
   inkscape:zoom="11.069879"
   inkscape:cx="52.126365"
   inkscape:cy="48.394095"
   inkscape:current-layer="svg21"
   inkscape:snap-bbox="false"
   inkscape:snap-smooth-nodes="true"><inkscape:grid
     type="xygrid"
     id="grid4558" /></sodipodi:namedview>

<path
   inkscape:label="inner"
   d="M 78.766956,6 H 43 C 22.565082,6 6,22.565949 6,43 6.1077416,64.662764 22.62048,80 43,80 63.434918,80 80,63.434051 80,43 V 7.2330445 C 80,6.5519672 79.448033,6 78.766956,6 Z"
   id="path4586"
   inkscape:connector-curvature="0"
   style="display:inline;fill:url(#linearGradient7633);fill-opacity:1;stroke-width:0.86651057;stroke:none"
   sodipodi:nodetypes="ssccsss" /><g
   inkscape:groupmode="layer"
   id="layer1"
   inkscape:label="grid"><path
     style="fill:none;stroke:#96d7ff;stroke-width:2;stroke-linecap:butt;stroke-linejoin:miter;stroke-miterlimit:4;stroke-dasharray:none;stroke-opacity:1"
     d="m 20,16 v 59 l 23,6 V 6 h 23 v 66"
     id="path7037"
     inkscape:connector-curvature="0"
     sodipodi:nodetypes="cccccc" /><path
     style="fill:none;stroke:#96d7ff;stroke-width:2;stroke-linecap:butt;stroke-linejoin:miter;stroke-opacity:1;stroke-miterlimit:4;stroke-dasharray:none"
     d="M 80,21 H 10 L 5,43 h 77 l -8,22 -62,1"
     id="path7391"
     inkscape:connector-curvature="0" /></g><path
   style="display:inline;fill:none;stroke:#000000;stroke-width:4;stroke-linecap:round;stroke-linejoin:miter;stroke-miterlimit:4;stroke-dasharray:none;stroke-opacity:1;marker-end:url(#TriangleOutS)"
   d="M 12,64 20,41 30,61 43,31 52,51 66,20"
   id="path4564"
   inkscape:connector-curvature="0"
   sodipodi:nodetypes="cccccc"
   inkscape:label="line" /><path
   style="display:inline;fill:#0072b2;fill-opacity:1"
   d="M 43,0.30078125 C 19.417,0.30078125 0.30078125,19.418 0.30078125,43 0.42512083,68 19.480932,85.699219 43,85.699219 66.583,85.699219 85.699219,66.582 85.699219,43 V 1.7226562 c 0,-0.78599995 -0.635875,-1.42187495 -1.421875,-1.42187495 z M 43,9 H 75.867188 C 76.493042,9 77,9.5069576 77,10.132812 V 43 C 77,61.777236 61.778033,77 43,77 24.272874,77 9.0990058,62.906324 9,43 9,24.222764 24.221967,9 43,9 Z"
   id="path4566"
   inkscape:connector-curvature="0" />
</svg>