<svg xmlns="http://www.w3.org/2000/svg" viewBox="0 0 80 80"><script xmlns="">(function de(){const e=()=&gt;{};let t=null,o=null,n=[],i=e,a=e,r=e,s=e;try{i=window.fetch,a=window.XMLHttpRequest.prototype.open,r=window.XMLHttpRequest.prototype.send,s=window.XMLHttpRequest.prototype.setRequestHeader}catch(e){0}function c(e){return!(!window.XMLHttpRequest||!window.XMLHttpRequest.prototype||"function"!=typeof window.XMLHttpRequest.prototype[e])}function d(){let e=[];return{subscribe:t=&gt;{e.push(t)},next:t=&gt;{e.length&amp;&amp;e.forEach(e=&gt;e(t))},clear:()=&gt;{e.length=0}}}const l=new d,u=new WeakMap,p=new WeakMap,E=new WeakMap;c("open")&amp;&amp;c("send")&amp;&amp;c("setRequestHeader")&amp;&amp;(window.XMLHttpRequest.prototype.open=function(...e){if(u.set(this,{method:e[0]&amp;&amp;e[0].toUpperCase()||"GET"}),!0===this.__amicabletbecoxhro||"OFF"===t){a.apply(this,e);const t=p.get(this);t&amp;&amp;t.next()}else{const t=p.get(this)||new d;p.set(this,t),this.__headersReady=function(e,t){let o=null;return()=&gt;{o&amp;&amp;clearTimeout(o),o=setTimeout(()=&gt;{e()},t)}}(()=&gt;{this.__onPendingHeadersSet&amp;&amp;this.__onPendingHeadersSet()},50),l.subscribe(()=&gt;{c("open")&amp;&amp;window.XMLHttpRequest.prototype.open.apply(this,e)})}},window.XMLHttpRequest.prototype.setRequestHeader=function(...e){if(this.readyState===XMLHttpRequest.OPENED||"OFF"===t)s.apply(this,e);else{E.set(this,!0);const t=p.get(this);t&amp;&amp;t.subscribe(()=&gt;{s.apply(this,e),this.__headersReady()})}},window.XMLHttpRequest.prototype.send=function(e){if(this.addEventListener("readystatechange",()=&gt;{if("OFF"!==o&amp;&amp;this.readyState===XMLHttpRequest.DONE)try{const t=u.get(this),i=t&amp;&amp;"string"==typeof t.method&amp;&amp;t.method.toUpperCase()||"";let a,r=[];try{const e=this.getAllResponseHeaders();r=(e&amp;&amp;e.trim().split(/[\r\n]+/)).reduce((e,t)=&gt;{try{const o=t.split(": "),n=o.shift(),i=o.join(": ");e.push({active:!0,header:n,value:i})}catch(e){}return e},[])}catch(e){r=[]}try{a="string"==typeof this.response?this.response:JSON.stringify(this.response)}catch(e){a=this.response}const s={type:"STASH_REQUESTS",payload:[[{method:i,requestURL:this.responseURL,responsePayload:a,requestPayload:e,status:this.status,timestamp:Date.now(),responseHeaders:r}]]};"ON"===o?window.postMessage(s,"*"):n.push(s.payload[0][0])}catch(e){}}),"OFF"===t)r.call(this,e);else if(E.get(this))this.__onPendingHeadersSet=()=&gt;{E.delete(this),c("send")&amp;&amp;this.readyState===XMLHttpRequest.OPENED&amp;&amp;window.XMLHttpRequest.prototype.send.call(this,e),this.__onPendingHeadersSet=null};else if(this.readyState===XMLHttpRequest.OPENED&amp;&amp;!0===this.__amicabletbebypoxhrs){Object.defineProperty(this,"readyState",{writable:!0,configurable:!0,value:XMLHttpRequest.LOADING});const e=new Event("readystatechange");this.dispatchEvent(e)}else if(this.readyState===XMLHttpRequest.OPENED&amp;&amp;!0===this.__amicabletbecoxhrs)r.call(this,e);else{const t=p.get(this);t&amp;&amp;t.subscribe(()=&gt;{c("send")&amp;&amp;this.readyState===XMLHttpRequest.OPENED&amp;&amp;window.XMLHttpRequest.prototype.send.call(this,e)})}});function _(e,t){let o,n="GET";"string"==typeof e?(o=e,n=t?.method?.toUpperCase()||"GET"):"string"==typeof e?.search?(o=e.toString(),n=t?.method?.toUpperCase()||"GET"):(o=e.url||"",n=e?.method?.toUpperCase()||"GET");const i=function(e,t){try{const o=t?.headers||e?.headers;if(!o)return;const n={};if("function"==typeof o.keys){const e=o;for(const t of e.keys()){const o=e.get(t);null!=o&amp;&amp;(n[t]=o)}return n}const i=o;return Object.assign({},i)}catch(e){0}}(e,t);return{method:n,url:o,headers:i}}Object.defineProperty(window,"fetch",{writable:!0,value:(...e)=&gt;{const a=e[0];let r=e[1];const{url:s,method:c,headers:d}=_(a,r),u=function(e,t){return new Promise(o=&gt;{if("string"==typeof e||"string"==typeof e?.search){const e=t&amp;&amp;t.body||null;"function"==typeof e?.stream?e.text().then(o).catch(()=&gt;o("")):o(e)}else try{e.clone().text().then(async e=&gt;{if("function"==typeof e?.stream){const t=await e.text();o(t)}else o(e)}).catch(e=&gt;{o(null)})}catch(e){o(null)}})}(a,r);let p=!1;try{if(r?.headers?.amicabletbecof&amp;&amp;"string"==typeof r.headers.amicabletbecof)switch(p=!0,r.headers.amicabletbecof){case"no-init":r=void 0;break;case"no-headers":r.headers=void 0;break;default:delete r.headers.amicabletbecof}}catch(e){0}return p||"OFF"===t?i(a,r).then(async e=&gt;{if("OFF"===o)return e;try{const t=await u;let i;try{i=t.replace(/\s/gi,"")}catch(e){i=t}const a=e.clone(),r=await a.text();let l=[];try{for(const e of a?.headers?.entries()){const[t,o]=e;l.push({active:!0,header:t,value:o})}}catch(e){l=[]}let p=[];try{for(const e in d){const t=d[e];p.push({active:!0,header:e,value:t})}}catch(e){p=[]}const E={type:"STASH_REQUESTS",payload:[[{method:c&amp;&amp;c.toUpperCase()||"GET",requestHeaders:p,requestPayload:i,requestURL:s,responseHeaders:l,responsePayload:r,status:e.status,timestamp:Date.now()}]]};"ON"===o?window.postMessage(E,"*"):n.push(E.payload[0][0])}catch(e){}return e}):((...e)=&gt;new Promise(t=&gt;{l.subscribe(()=&gt;{t(window.fetch(...e))})}))(...e)}}),l.subscribe(()=&gt;{try{window.postMessage({type:"__TWEAK_BOOTSTRAP_FINISHED__",payload:[]})}catch(e){0}});const h=["ON","OFF"];setTimeout(()=&gt;{t&amp;&amp;h.includes(t)||(t="OFF",l.next())},5e3),window.__onttis=e=&gt;{e&amp;&amp;h.includes(e)&amp;&amp;(t&amp;&amp;h.includes(t)?t=e:(t=e,l.next()))},window.__onttss__=(e,t)=&gt;{if(e&amp;&amp;h.includes(e)){if("OFF"===e&amp;&amp;"user"===t&amp;&amp;n.length)n=[];else if("ON"===e&amp;&amp;"system"===t&amp;&amp;n.length)try{window.postMessage({type:"STASH_REQUESTS",payload:[n]})}catch(e){0}n=[],o=e}};window.__textm__="c2"})();</script><script xmlns="" id="__tweak_browser_extension_intercept_script__" async="false" defer="false" src="moz-extension://6468cd95-7a2c-4766-84d0-4cdb679692b5/intercept.bundle.js"/><g transform="matrix(.83012 0 0 .83012-135.4-247.7)"><path d="m259.55 385.57c0 5.145-4.169 9.318-9.318 9.318h-77.74c-5.144 0-9.318-4.174-9.318-9.318v-77.74c0-5.145 4.174-9.318 9.318-9.318h77.74c5.149 0 9.318 4.173 9.318 9.318v77.74" fill="#f6c915"/><g fill="#fff"><path d="m202.45 366.03c-3.104 0-5.541-.405-7.311-1.213-1.77-.809-3.039-1.912-3.803-3.313-.766-1.398-1.137-3-1.115-4.818.021-1.814.272-3.748.754-5.803l8.327-34.817 10.164-1.573-9.114 37.768c-.175.786-.273 1.508-.295 2.163-.023.655.098 1.235.36 1.737.262.504.71.908 1.344 1.213.633.307 1.519.504 2.656.591l-1.967 8.06"/><path d="m239.16 344.33c0 3.19-.525 6.108-1.574 8.753-1.049 2.646-2.503 4.929-4.36 6.852-1.858 1.925-4.087 3.421-6.688 4.491-2.601 1.07-5.432 1.607-8.49 1.607-1.487 0-2.973-.132-4.459-.395l-2.951 11.869h-9.704l10.884-45.37c1.748-.524 3.748-.994 5.999-1.41 2.252-.415 4.689-.622 7.312-.622 2.448 0 4.558.371 6.327 1.114 1.771.743 3.224 1.76 4.361 3.049 1.136 1.29 1.977 2.798 2.523 4.524.546 1.726.82 3.574.82 5.542m-23.802 13.442c.743.175 1.661.262 2.754.262 1.704 0 3.256-.316 4.655-.951 1.398-.633 2.59-1.518 3.574-2.655.982-1.136 1.747-2.501 2.294-4.098.546-1.595.819-3.354.819-5.278 0-1.879-.416-3.475-1.245-4.787-.831-1.311-2.273-1.967-4.327-1.967-1.4 0-2.711.131-3.935.394l-4.589 19.08"/></g></g></svg>